<?xml version="1.0" encoding="UTF-8"?>
<svg width="171px" height="95px" viewBox="0 0 171 95" version="1.1" xmlns="http://www.w3.org/2000/svg" xmlns:xlink="http://www.w3.org/1999/xlink">
    <!-- Generator: Sketch 40.1 (33804) - http://www.bohemiancoding.com/sketch -->
    <title>Logo</title>
    <desc>Created with Sketch.</desc>
    <defs>
        <polygon id="path-1" points="0.0370397112 0.111655844 0.0370397112 41.1652273 34.9488195 41.1652273 34.9488195 0.111655844 0.0370397112 0.111655844"></polygon>
        <polygon id="path-3" points="0.0370397112 0.418246753 0.0370397112 9.99905844 34.9475848 9.99905844 34.9475848 0.418246753 0.0370397112 0.418246753"></polygon>
    </defs>
    <g id="Symbols" stroke="none" stroke-width="1" fill="none" fill-rule="evenodd">
        <g id="Header" transform="translate(-20.000000, -58.000000)">
            <g id="Group">
                <g transform="translate(20.000000, 58.000000)">
                    <g id="Logo">
                        <g id="Group-4" transform="translate(0.000000, 33.311688)">
                            <mask id="mask-2" fill="white">
                                <use xlink:href="#path-1"></use>
                            </mask>
                            <g id="Clip-2"></g>
                            <path d="M30.1546462,9.69308442 L4.79540794,9.69308442 C2.14768592,9.69308442 0.00123465704,7.54818182 0.00123465704,4.90237013 C0.00123465704,2.25655844 2.14768592,0.111655844 4.79540794,0.111655844 L30.1546462,0.111655844 C32.8023682,0.111655844 34.9488195,2.25655844 34.9488195,4.90237013 C34.9488195,7.54818182 32.8023682,9.69308442 30.1546462,9.69308442" id="Fill-1" fill="#2493C5" mask="url(#mask-2)"></path>
                            <path d="M30.1534116,41.1652273 L4.79417329,41.1652273 C2.14645126,41.1652273 0,39.0203247 0,36.374513 C0,33.7287013 2.14645126,31.5837987 4.79417329,31.5837987 L30.1534116,31.5837987 C32.8011336,31.5837987 34.9475848,33.7287013 34.9475848,36.374513 C34.9475848,39.0203247 32.8011336,41.1652273 30.1534116,41.1652273" id="Fill-3" fill="#07A867" mask="url(#mask-2)"></path>
                        </g>
                        <path d="M61.4939458,74.4769156 L43.1160758,74.4769156 C40.4689711,74.4769156 38.3219025,72.332013 38.3219025,69.6862013 C38.3219025,67.0403896 40.4689711,64.895487 43.1160758,64.895487 L61.4939458,64.895487 C63.1946859,64.895487 64.5768845,63.5136688 64.5768845,61.8153896 C64.5768845,60.1171104 63.1946859,58.7346753 61.4939458,58.7346753 L43.1160758,58.7346753 C40.4689711,58.7346753 38.3219025,56.5891558 38.3219025,53.943961 C38.3219025,51.2981494 40.4689711,49.1538636 43.1160758,49.1538636 L61.4939458,49.1538636 C68.48087,49.1538636 74.1633791,54.8328896 74.1633791,61.8153896 C74.1633791,68.7972727 68.48087,74.4769156 61.4939458,74.4769156" id="Fill-5" fill="#BFC1BE"></path>
                        <path d="M99.8504188,58.7457792 L81.4744007,58.7457792 C78.8266787,58.7457792 76.6802274,56.6008766 76.6802274,53.9550649 C76.6802274,51.3092532 78.8266787,49.1649675 81.4744007,49.1649675 L99.8504188,49.1649675 C101.551159,49.1649675 102.933357,47.7831494 102.933357,46.085487 C102.933357,44.385974 101.551159,43.0047727 99.8504188,43.0047727 L81.4744007,43.0047727 C78.8266787,43.0047727 76.6802274,40.860487 76.6802274,38.2146753 C76.6802274,35.5688636 78.8266787,33.423961 81.4744007,33.423961 L99.8504188,33.423961 C106.836108,33.423961 112.521087,39.1036039 112.521087,46.085487 C112.521087,53.0661364 106.836108,58.7457792 99.8504188,58.7457792" id="Fill-6" fill="#BFC1BE"></path>
                        <path d="M68.5759386,43.0047727 L43.1179278,43.0047727 C40.4702058,43.0047727 38.3219025,40.860487 38.3219025,38.2146753 C38.3219025,35.5688636 40.4702058,33.4233442 43.1179278,33.4233442 L68.5759386,33.423961 C71.222426,33.423961 73.3701119,35.5688636 73.3701119,38.2146753 C73.3701119,40.860487 71.222426,43.0047727 68.5759386,43.0047727" id="Fill-7" fill="#BFC1BE"></path>
                        <g id="Group-11" transform="translate(0.000000, 48.733766)">
                            <mask id="mask-4" fill="white">
                                <use xlink:href="#path-3"></use>
                            </mask>
                            <g id="Clip-9"></g>
                            <path d="M30.1534116,9.99905844 L30.4349134,9.99905844 C27.7871913,9.99905844 25.6401227,7.85415584 25.6401227,5.20834416 C25.6401227,2.56253247 27.7871913,0.418246753 30.4349134,0.418246753 L30.1534116,0.418246753 C32.8011336,0.418246753 34.9475848,2.56253247 34.9475848,5.20834416 C34.9475848,7.85415584 32.8011336,9.99905844 30.1534116,9.99905844" id="Fill-8" fill="#BFC1BE" mask="url(#mask-4)"></path>
                            <path d="M17.5271913,9.99905844 L4.79417329,9.99905844 C2.14645126,9.99905844 0,7.85415584 0,5.20834416 C0,2.56253247 2.14645126,0.418246753 4.79417329,0.418246753 L17.5271913,0.418246753 C20.176148,0.418246753 22.3232166,2.56253247 22.3232166,5.20834416 C22.3232166,7.85415584 20.176148,9.99905844 17.5271913,9.99905844" id="Fill-10" fill="#BFC1BE" mask="url(#mask-4)"></path>
                        </g>
                        <path d="M143.155397,74.5558766 L129.443296,74.5558766 C121.850155,74.5558766 115.671931,68.3821104 115.671931,60.7944481 L115.671931,47.0891558 C115.671931,39.5014935 121.850155,33.3283442 129.443296,33.3283442 L143.155397,33.3283442 C145.803119,33.3283442 147.94957,35.4732468 147.94957,38.1190584 C147.94957,40.7648701 145.803119,42.9110065 143.155397,42.9110065 L129.443296,42.9110065 C127.137574,42.9110065 125.260895,44.7838636 125.260895,47.0891558 L125.260895,60.7944481 C125.260895,63.0991234 127.137574,64.9725974 129.443296,64.9725974 L143.155397,64.9725974 C145.803119,64.9725974 147.94957,67.1193506 147.94957,69.7651623 C147.94957,72.410974 145.803119,74.5558766 143.155397,74.5558766" id="Fill-12" fill="#BFC1BE"></path>
                        <path d="M165.577386,74.6687662 C164.34952,74.6687662 163.122888,74.2005519 162.187018,73.2647403 L153.930249,65.0139286 C147.821783,58.910487 147.821783,48.9786688 153.930249,42.8752273 L162.526549,34.2838961 C164.398906,32.4128896 167.434928,32.4128896 169.307285,34.2838961 C171.178408,36.1542857 171.178408,39.1881169 169.307285,41.0585065 L160.710986,49.6498377 C158.341679,52.0174351 158.341679,55.8711039 160.710986,58.2393182 L168.965285,66.4901299 C170.839495,68.3611364 170.839495,71.3937338 168.967137,73.2647403 C168.031267,74.2005519 166.804018,74.6687662 165.577386,74.6687662" id="Fill-13" fill="#BFC1BE"></path>
                        <path d="M3.14405415,92.1253247 L3.64347292,92.1253247 C3.70890975,92.1253247 3.7663213,92.112987 3.81509025,92.0883117 C4.17314079,92.0562338 4.41081227,91.9149675 4.52810469,91.6651299 C4.64663177,91.4159091 4.70527798,91.1025325 4.70527798,90.7256169 C4.70527798,90.2586364 4.62625993,89.9168831 4.46698917,89.6997403 C4.30895307,89.4832143 4.02683394,89.374026 3.62001444,89.374026 L3.14405415,89.374026 L3.14405415,92.1253247 L3.14405415,92.1253247 Z M3.14405415,88.1340909 L3.70705776,88.1340909 C4.14844765,88.1340909 4.51267148,88.1933117 4.80219856,88.3117532 C5.09172563,88.4301948 5.32445848,88.5998377 5.50039711,88.8200649 C5.67510108,89.0402922 5.80041877,89.310487 5.87326354,89.6294156 C5.94734296,89.9471104 5.98376534,90.3067532 5.98376534,90.7071104 C5.98376534,91.5978896 5.79918412,92.2647403 5.43002166,92.7107468 C5.06147653,93.1555195 4.49168231,93.3782143 3.72187365,93.3782143 L1.81679783,93.3782143 L1.81679783,84.8294481 L5.56583394,84.8294481 L5.56583394,86.07 L3.14405415,86.07 L3.14405415,88.1340909 L3.14405415,88.1340909 Z" id="Fill-14" fill="#797B79"></path>
                        <path d="M8.71174007,86.8077922 C8.62901805,87.3969156 8.54382671,87.9848052 8.45369675,88.5702273 C8.36294946,89.1556494 8.2641769,89.7509416 8.15799639,90.3573377 L9.32598195,90.3573377 L8.77223827,86.8077922 L8.71174007,86.8077922 L8.71174007,86.8077922 Z M9.86737906,93.3788312 L9.53525632,91.5978896 L7.96168592,91.5978896 C7.90427437,91.8927597 7.84933213,92.1888636 7.79500722,92.4880519 C7.74191697,92.7872403 7.6906787,93.083961 7.64252708,93.3788312 L6.28934296,93.3788312 C6.57640072,91.9451948 6.86284116,90.5214286 7.14989892,89.1044481 C7.43633935,87.6880844 7.72339711,86.2630844 8.01045487,84.8300649 L9.48525271,84.8300649 L11.2187112,93.3788312 L9.86737906,93.3788312 L9.86737906,93.3788312 Z" id="Fill-15" fill="#797B79"></path>
                        <polyline id="Fill-16" fill="#797B79" points="18.4093538 84.8300649 18.4093538 93.3788312 11.8829567 93.3788312 11.8829567 84.8300649 13.210213 84.8300649 13.210213 92.1382792 14.4769711 92.1382792 14.4769711 84.8300649 15.8036101 84.8300649 15.8036101 92.1382792 17.0820975 92.1382792 17.0820975 84.8300649 18.4093538 84.8300649"></polyline>
                        <path d="M19.576722,93.3788312 L19.576722,84.8300649 L20.9039783,84.8300649 L20.9039783,88.4412987 L21.1737509,88.4412987 C21.4688339,88.4412987 21.7102094,88.3555519 21.8997292,88.1834416 C22.0880144,88.0113312 22.231852,87.7041234 22.3306245,87.2624351 C22.3460578,87.1884091 22.3812455,87.0354221 22.4331011,86.8010065 C22.4868087,86.5678247 22.5411336,86.3186039 22.5948412,86.0521104 C22.6466968,85.7862338 22.6985523,85.537013 22.7473213,85.3025974 C22.7960903,85.0694156 22.8288087,84.9164286 22.8454765,84.8424026 L24.0869242,84.8424026 C23.9961769,85.2766883 23.9060469,85.7048052 23.8171516,86.1267532 C23.7270217,86.5474675 23.6362744,86.9718831 23.5461444,87.3975325 C23.4553971,87.8151623 23.3189675,88.1532143 23.1356209,88.4104545 C22.9504224,88.6683117 22.7399134,88.8465909 22.5010072,88.9446753 L22.5010072,88.9693506 C22.8133755,89.0840909 23.0553682,89.268539 23.2269856,89.5220779 C23.3992202,89.7762338 23.5294765,90.1118182 23.6196065,90.5294481 C23.7270217,91.0124675 23.8270289,91.4893182 23.9220975,91.96 C24.0153141,92.4306818 24.1153213,92.9044481 24.2227365,93.3788312 L22.8954801,93.3788312 L22.6497834,92.1259416 C22.5676787,91.7083117 22.48187,91.2906818 22.3911227,90.8730519 C22.3009928,90.4147078 22.1633285,90.0951623 21.9787473,89.9150325 C21.7947834,89.7355195 21.5546426,89.6448377 21.2601769,89.6448377 L20.9039783,89.6448377 L20.9039783,93.3788312 L19.576722,93.3788312" id="Fill-17" fill="#797B79"></path>
                        <polyline id="Fill-18" fill="#797B79" points="27.8970758 88.0236688 26.1037365 93.3788312 24.8258664 93.3788312 24.8258664 84.8300649 26.1148484 84.8300649 26.1148484 90.2469156 26.164852 90.2469156 27.9464621 84.8300649 29.237296 84.8300649 29.237296 93.3788312 27.9353502 93.3788312 27.9353502 88.0236688 27.8970758 88.0236688"></polyline>
                        <path d="M31.6961155,86.0706169 L31.6961155,88.8342532 L32.1634332,88.8342532 C32.5733394,88.8342532 32.8566931,88.7170455 33.0178159,88.4832468 C33.177704,88.2488312 33.2561047,87.8965909 33.2561047,87.4283766 C33.2561047,87.0082792 33.1820253,86.6776299 33.0295451,86.4345779 C32.8782996,86.1921429 32.5967978,86.0706169 32.187509,86.0706169 L31.6961155,86.0706169 L31.6961155,86.0706169 Z M32.2609711,84.8300649 C33.0474477,84.8300649 33.6234152,85.0342532 33.9882563,85.4444805 C34.3524801,85.8540909 34.5345921,86.5129221 34.5345921,87.4215909 C34.5345921,87.8231818 34.4975523,88.1877597 34.4240903,88.5147078 C34.3512455,88.8428896 34.2234585,89.1229545 34.0431986,89.3567532 C33.863556,89.5899351 33.6277365,89.7719156 33.3375921,89.9033117 C33.046213,90.033474 32.6789025,90.0994805 32.2368953,90.0994805 L31.6961155,90.0994805 L31.6961155,93.3788312 L30.3688592,93.3788312 L30.3688592,84.8300649 L32.2609711,84.8300649 L32.2609711,84.8300649 Z" id="Fill-19" fill="#797B79"></path>
                        <path d="M37.3372635,84.7566558 C37.6885235,84.7566558 37.9922491,84.8047727 38.2465884,84.9028571 C38.4990758,84.9997078 38.7108195,85.1354221 38.8793502,85.31 C39.0472635,85.483961 39.1701119,85.6918506 39.2478953,85.9312013 C39.3256787,86.1717857 39.3651877,86.4351948 39.3651877,86.7220455 L38.0749711,87.0533117 C38.0749711,86.7417857 38.0144729,86.4876299 37.8977978,86.2920779 C37.7792708,86.0952922 37.5903682,85.9972078 37.3298556,85.9972078 C37.1761408,85.9972078 37.0508231,86.0299026 36.9532852,86.0952922 C36.8545126,86.1606818 36.7798159,86.2458117 36.7267256,86.3475974 C36.6736354,86.45 36.6378303,86.5604221 36.6168412,86.6800974 C36.597704,86.798539 36.5872094,86.9114286 36.5872094,87.0187662 L36.5872094,91.3628571 C36.5872094,91.4449026 36.5946173,91.5349675 36.6112852,91.6342857 C36.6273357,91.7317532 36.6619061,91.8242857 36.7149964,91.9100325 C36.7680866,91.997013 36.8403141,92.0685714 36.9347653,92.1253247 C37.0279819,92.1833117 37.1477437,92.2110714 37.2934332,92.2110714 C37.7805054,92.2110714 38.0292888,91.8594481 38.0379314,91.1549675 C38.2577004,91.1962987 38.4793213,91.231461 38.7015596,91.2598377 C38.9213285,91.2888312 39.1435668,91.3190584 39.3651877,91.3523701 C39.3479025,91.9988636 39.1701119,92.5102597 38.8293466,92.8877922 C38.4898159,93.2640909 37.9879278,93.4516234 37.3242996,93.4516234 C36.6199278,93.4516234 36.0989025,93.273961 35.7624585,92.9180195 C35.4266318,92.561461 35.2599531,92.0401948 35.2599531,91.3523701 L35.2599531,87.0897078 C35.2599531,86.7701623 35.2939061,86.4697403 35.3642816,86.1872078 C35.4334224,85.9046753 35.5507148,85.6566883 35.7149242,85.4438636 C35.8785162,85.2316558 36.0927292,85.0638636 36.3600325,84.9411039 C36.6261011,84.8183442 36.9520505,84.7566558 37.3372635,84.7566558" id="Fill-20" fill="#797B79"></path>
                        <path d="M40.2251264,93.3788312 L40.2251264,84.8300649 L41.5523827,84.8300649 L41.5523827,88.4412987 L41.8221552,88.4412987 C42.1172383,88.4412987 42.3586137,88.3555519 42.5481336,88.1834416 C42.7364188,88.0113312 42.8802563,87.7041234 42.9790289,87.2624351 C42.9944621,87.1884091 43.0296498,87.0354221 43.0815054,86.8010065 C43.135213,86.5678247 43.1895379,86.3186039 43.2432455,86.0521104 C43.2951011,85.7862338 43.3469567,85.537013 43.3957256,85.3025974 C43.4444946,85.0694156 43.477213,84.9164286 43.4938809,84.8424026 L44.7353285,84.8424026 C44.6451986,85.2766883 44.5544513,85.7048052 44.465556,86.1267532 C44.375426,86.5474675 44.2846787,86.9718831 44.1945487,87.3975325 C44.1038014,87.8151623 43.9673718,88.1532143 43.7840253,88.4104545 C43.5988267,88.6683117 43.3883177,88.8465909 43.1494116,88.9446753 L43.1494116,88.9693506 C43.4617798,89.0840909 43.7037726,89.268539 43.8753899,89.5220779 C44.0476245,89.7762338 44.1778809,90.1118182 44.2680108,90.5294481 C44.375426,91.0124675 44.4754332,91.4893182 44.5705018,91.96 C44.6637184,92.4306818 44.7637256,92.9044481 44.8711408,93.3788312 L43.5438845,93.3788312 L43.2981877,92.1259416 C43.216083,91.7083117 43.1302744,91.2906818 43.0395271,90.8730519 C42.9493971,90.4147078 42.8123502,90.0951623 42.6271516,89.9150325 C42.4431877,89.7355195 42.2030469,89.6448377 41.9085812,89.6448377 L41.5523827,89.6448377 L41.5523827,93.3788312 L40.2251264,93.3788312" id="Fill-21" fill="#797B79"></path>
                        <polyline id="Fill-22" fill="#797B79" points="48.5454801 88.0236688 46.7521408 93.3788312 45.4742708 93.3788312 45.4742708 84.8300649 46.7632527 84.8300649 46.7632527 90.2469156 46.8132563 90.2469156 48.5948664 84.8300649 49.8857004 84.8300649 49.8857004 93.3788312 48.5837545 93.3788312 48.5837545 88.0236688 48.5454801 88.0236688"></polyline>
                        <path d="M52.4414404,82.8899675 C52.450083,82.9794156 52.4766282,83.0719481 52.5216931,83.1657143 C52.5673755,83.2607143 52.624787,83.3489286 52.6945451,83.4303571 C52.7630686,83.5117857 52.8439386,83.579026 52.9346859,83.6326948 C53.0235812,83.6863636 53.1260578,83.7128896 53.2402635,83.7128896 C53.3631119,83.7128896 53.4723791,83.6863636 53.5674477,83.6326948 C53.6612816,83.579026 53.740917,83.5117857 53.8069711,83.4303571 C53.8724079,83.3489286 53.9230289,83.2607143 53.9600686,83.1657143 C53.9971083,83.0719481 54.0162455,82.9794156 54.0162455,82.8899675 L54.9866859,82.8899675 C54.9687834,83.061461 54.9255704,83.2477597 54.8502563,83.4482468 C54.7767942,83.6493506 54.6681444,83.8337987 54.5261588,84.000974 C54.381704,84.1693831 54.205148,84.3081818 53.9971083,84.4186039 C53.7884513,84.5302597 53.5359639,84.5851623 53.2402635,84.5851623 C52.921722,84.5851623 52.6500975,84.5302597 52.4297112,84.4186039 C52.2087076,84.3081818 52.0278303,84.1693831 51.8889314,84.000974 C51.7494152,83.8337987 51.647556,83.6493506 51.5815018,83.4482468 C51.5166823,83.2477597 51.4796426,83.061461 51.471,82.8899675 L52.4414404,82.8899675 L52.4414404,82.8899675 Z M54.0403213,88.0230519 L52.2457473,93.3788312 L50.9672599,93.3788312 L50.9672599,84.8306818 L52.2574765,84.8306818 L52.2574765,90.2469156 L52.3068628,90.2469156 L54.0890903,84.8306818 L55.3799242,84.8306818 L55.3799242,93.3788312 L54.0767437,93.3788312 L54.0767437,88.0230519 L54.0403213,88.0230519 L54.0403213,88.0230519 Z" id="Fill-23" fill="#797B79"></path>
                        <path d="M60.2580542,86.0706169 L60.2580542,88.8342532 L60.7253718,88.8342532 C61.135278,88.8342532 61.4198664,88.7170455 61.5797545,88.4832468 C61.7396426,88.2488312 61.8198953,87.8965909 61.8198953,87.4283766 C61.8198953,87.0082792 61.7439639,86.6776299 61.5927184,86.4345779 C61.4402383,86.1921429 61.1605884,86.0706169 60.7512996,86.0706169 L60.2580542,86.0706169 L60.2580542,86.0706169 Z M60.8241444,84.8300649 C61.6106209,84.8300649 62.1853538,85.0342532 62.5514296,85.4444805 C62.9156534,85.8540909 63.0977653,86.5129221 63.0977653,87.4215909 C63.0977653,87.8231818 63.061343,88.1877597 62.9872635,88.5147078 C62.9131841,88.8428896 62.7853971,89.1229545 62.6063718,89.3567532 C62.4254946,89.5899351 62.1896751,89.7719156 61.8995307,89.9033117 C61.6081516,90.033474 61.2420758,90.0994805 60.7988339,90.0994805 L60.2580542,90.0994805 L60.2580542,93.3788312 L58.9307978,93.3788312 L58.9307978,84.8300649 L60.8241444,84.8300649 L60.8241444,84.8300649 Z" id="Fill-24" fill="#797B79"></path>
                        <polyline id="Fill-25" fill="#797B79" points="63.8972058 93.3788312 63.8972058 84.8300649 67.6937762 84.8300649 67.6937762 86.0706169 65.2244621 86.0706169 65.2244621 88.4042857 67.375852 88.4042857 67.375852 89.669513 65.2244621 89.669513 65.2244621 92.1382792 67.6937762 92.1382792 67.6937762 93.3788312 63.8972058 93.3788312"></polyline>
                        <polyline id="Fill-26" fill="#797B79" points="69.7970144 86.0706169 69.7970144 93.3788312 68.4697581 93.3788312 68.4697581 84.8300649 72.1694079 84.8300649 72.1694079 86.0706169 69.7970144 86.0706169"></polyline>
                        <polyline id="Fill-27" fill="#797B79" points="76.0147473 88.0236688 74.2207906 93.3788312 72.9435379 93.3788312 72.9435379 84.8300649 74.2319025 84.8300649 74.2319025 90.2469156 74.2819061 90.2469156 76.0641336 84.8300649 77.3549675 84.8300649 77.3549675 93.3788312 76.0530217 93.3788312 76.0530217 88.0236688 76.0147473 88.0236688"></polyline>
                        <path d="M80.4897617,84.7566558 C80.8410217,84.7566558 81.1447473,84.8047727 81.3990866,84.9028571 C81.651574,84.9997078 81.8633177,85.1354221 82.0318484,85.31 C82.1997617,85.483961 82.3226101,85.6918506 82.4003935,85.9312013 C82.4781769,86.1717857 82.5176859,86.4351948 82.5176859,86.7220455 L81.2274693,87.0533117 C81.2274693,86.7417857 81.1669711,86.4876299 81.050296,86.2920779 C80.931769,86.0952922 80.7428664,85.9972078 80.4823538,85.9972078 C80.328639,85.9972078 80.2033213,86.0299026 80.1057834,86.0952922 C80.0070108,86.1606818 79.9323141,86.2458117 79.8792238,86.3475974 C79.8261336,86.45 79.7903285,86.5604221 79.7693394,86.6800974 C79.7502022,86.798539 79.7397076,86.9114286 79.7397076,87.0187662 L79.7397076,91.3628571 C79.7397076,91.4449026 79.7471155,91.5349675 79.7637834,91.6342857 C79.7798339,91.7317532 79.8144043,91.8242857 79.8674946,91.9100325 C79.9205848,91.997013 79.9928123,92.0685714 80.0872635,92.1253247 C80.1804801,92.1833117 80.3002419,92.2110714 80.4459314,92.2110714 C80.9330036,92.2110714 81.181787,91.8594481 81.1904296,91.1549675 C81.4101986,91.1962987 81.6318195,91.231461 81.8540578,91.2598377 C82.0738267,91.2888312 82.296065,91.3190584 82.5176859,91.3523701 C82.5004007,91.9988636 82.3226101,92.5102597 81.9818448,92.8877922 C81.6423141,93.2640909 81.140426,93.4516234 80.4767978,93.4516234 C79.772426,93.4516234 79.2514007,93.273961 78.9149567,92.9180195 C78.57913,92.561461 78.4124513,92.0401948 78.4124513,91.3523701 L78.4124513,87.0897078 C78.4124513,86.7701623 78.4464043,86.4697403 78.5167798,86.1872078 C78.5859206,85.9046753 78.703213,85.6566883 78.8674224,85.4438636 C79.0310144,85.2316558 79.2452274,85.0638636 79.5125307,84.9411039 C79.7785993,84.8183442 80.1045487,84.7566558 80.4897617,84.7566558" id="Fill-28" fill="#797B79"></path>
                        <polyline id="Fill-29" fill="#797B79" points="85.4783935 86.0706169 85.4783935 93.3788312 84.1511372 93.3788312 84.1511372 86.0706169 82.7744946 86.0706169 82.7744946 84.8300649 86.8550361 84.8300649 86.8550361 86.0706169 85.4783935 86.0706169"></polyline>
                        <path d="M88.7860397,86.0706169 L88.7860397,88.8342532 L89.2533574,88.8342532 C89.6632635,88.8342532 89.9466173,88.7170455 90.1077401,88.4832468 C90.2676282,88.2488312 90.3460289,87.8965909 90.3460289,87.4283766 C90.3460289,87.0082792 90.2719495,86.6776299 90.1194693,86.4345779 C89.9682238,86.1921429 89.686722,86.0706169 89.2774332,86.0706169 L88.7860397,86.0706169 L88.7860397,86.0706169 Z M89.3508953,84.8300649 C90.1373718,84.8300649 90.7133394,85.0342532 91.0781805,85.4444805 C91.4424043,85.8540909 91.6245162,86.5129221 91.6245162,87.4215909 C91.6245162,87.8231818 91.5874765,88.1877597 91.5140144,88.5147078 C91.4411697,88.8428896 91.3133827,89.1229545 91.1331227,89.3567532 C90.9534801,89.5899351 90.7176606,89.7719156 90.4275162,89.9033117 C90.1361372,90.033474 89.7688267,90.0994805 89.3268195,90.0994805 L88.7860397,90.0994805 L88.7860397,93.3788312 L87.4587834,93.3788312 L87.4587834,84.8300649 L89.3508953,84.8300649 L89.3508953,84.8300649 Z" id="Fill-30" fill="#797B79"></path>
                        <path d="M96.8477329,84.7566558 C97.1989928,84.7566558 97.5027184,84.8047727 97.7570578,84.9028571 C98.0107798,84.9997078 98.2212888,85.1354221 98.3898195,85.31 C98.5577329,85.483961 98.6805812,85.6918506 98.7602166,85.9312013 C98.8373827,86.1717857 98.875657,86.4351948 98.875657,86.7220455 L97.5854404,87.0533117 C97.5854404,86.7417857 97.5267942,86.4876299 97.4082671,86.2920779 C97.2909747,86.0952922 97.1020722,85.9972078 96.8421769,85.9972078 C96.6866101,85.9972078 96.5612924,86.0299026 96.4637545,86.0952922 C96.3662166,86.1606818 96.2909025,86.2458117 96.2378123,86.3475974 C96.1853394,86.45 96.1482996,86.5604221 96.1291625,86.6800974 C96.1081733,86.798539 96.0976787,86.9114286 96.0976787,87.0187662 L96.0976787,91.3628571 C96.0976787,91.4449026 96.1063213,91.5349675 96.1217545,91.6342857 C96.1390397,91.7317532 96.1723755,91.8242857 96.2267004,91.9100325 C96.278556,91.997013 96.3520181,92.0685714 96.4452347,92.1253247 C96.5384513,92.1833117 96.658213,92.2110714 96.8051372,92.2110714 C97.2922094,92.2110714 97.5397581,91.8594481 97.5484007,91.1549675 C97.7694043,91.1962987 97.9916426,91.231461 98.2120289,91.2598377 C98.4330325,91.2888312 98.6552708,91.3190584 98.875657,91.3523701 C98.8596065,91.9988636 98.6805812,92.5102597 98.3416679,92.8877922 C98.0015199,93.2640909 97.4983971,93.4516234 96.834769,93.4516234 C96.1303971,93.4516234 95.6106065,93.273961 95.2741625,92.9180195 C94.9383357,92.561461 94.7704224,92.0401948 94.7704224,91.3523701 L94.7704224,87.0897078 C94.7704224,86.7701623 94.8062274,86.4697403 94.8747509,86.1872078 C94.9438917,85.9046753 95.0611841,85.6566883 95.2253935,85.4438636 C95.3889856,85.2316558 95.6031986,85.0638636 95.8705018,84.9411039 C96.1378051,84.8183442 96.4625199,84.7566558 96.8477329,84.7566558" id="Fill-31" fill="#797B79"></path>
                        <path d="M102.476534,86.9182143 C102.476534,86.6813312 102.425913,86.4678896 102.324054,86.2797403 C102.220343,86.090974 102.025884,85.9978247 101.738827,85.9978247 C101.584495,85.9978247 101.457325,86.0317532 101.357935,86.1020779 C101.260397,86.1711688 101.184466,86.2569156 101.130758,86.3599351 C101.077051,86.4623377 101.040628,86.576461 101.020256,86.703539 C100.999267,86.8306169 100.98939,86.9472078 100.98939,87.0533117 L100.98939,91.352987 C100.98939,91.5732143 101.044949,91.7724675 101.156069,91.9482792 C101.265953,92.1247078 101.457325,92.2116883 101.72648,92.2116883 C101.998105,92.2116883 102.190094,92.1203896 102.3043,91.9359416 C102.420357,91.7508766 102.476534,91.5281818 102.476534,91.2666234 L102.476534,86.9182143 L102.476534,86.9182143 Z M103.803791,91.1925974 C103.803791,91.9377922 103.637112,92.5010065 103.303137,92.8816234 C102.966693,93.2622403 102.439495,93.4522403 101.720924,93.4522403 C101.002354,93.4522403 100.479477,93.2702597 100.152292,92.9062987 C99.8257256,92.5423377 99.6621336,92.0161364 99.6621336,91.3283117 L99.6621336,87.0286364 C99.6621336,86.6930519 99.7016426,86.386461 99.779426,86.1076299 C99.8553574,85.8294156 99.9769711,85.5900649 100.139946,85.3895779 C100.302921,85.188474 100.517751,85.0330195 100.783202,84.9225974 C101.048653,84.8121753 101.365343,84.7572727 101.733888,84.7572727 C102.125274,84.7572727 102.45431,84.8078571 102.719762,84.9102597 C102.984596,85.0120455 103.198191,85.1619481 103.358079,85.3593506 C103.515498,85.5549026 103.630321,85.7924026 103.698845,86.0706169 C103.769838,86.3494481 103.803791,86.6646753 103.803791,87.0169156 L103.803791,91.1925974 L103.803791,91.1925974 Z" id="Fill-32" fill="#797B79"></path>
                        <polyline id="Fill-33" fill="#797B79" points="109.0517 84.8300649 109.0517 92.1382792 109.605444 92.1382792 109.605444 95 108.499191 95 108.499191 93.3788312 104.909426 93.3788312 104.909426 84.8300649 106.236682 84.8300649 106.236682 92.1382792 107.724444 92.1382792 107.724444 84.8300649 109.0517 84.8300649"></polyline>
                        <polyline id="Fill-34" fill="#797B79" points="113.328552 88.0236688 111.535213 93.3788312 110.257343 93.3788312 110.257343 84.8300649 111.546325 84.8300649 111.546325 90.2469156 111.596329 90.2469156 113.377939 84.8300649 114.668773 84.8300649 114.668773 93.3788312 113.366827 93.3788312 113.366827 88.0236688 113.328552 88.0236688"></polyline>
                        <path d="M117.717758,86.8077922 C117.636271,87.3969156 117.549845,87.9848052 117.459715,88.5702273 C117.368968,89.1556494 117.270195,89.7509416 117.164014,90.3573377 L118.332,90.3573377 L117.778256,86.8077922 L117.717758,86.8077922 L117.717758,86.8077922 Z M118.873397,93.3788312 L118.541274,91.5978896 L116.967704,91.5978896 C116.910292,91.8927597 116.85535,92.1888636 116.801025,92.4880519 C116.747318,92.7872403 116.696697,93.083961 116.647928,93.3788312 L115.295361,93.3788312 C115.582419,91.9451948 115.868859,90.5214286 116.155917,89.1044481 C116.442357,87.6880844 116.729415,86.2630844 117.01709,84.8300649 L118.491271,84.8300649 L120.224112,93.3788312 L118.873397,93.3788312 L118.873397,93.3788312 Z" id="Fill-35" fill="#797B79"></path>
                        <path d="M125.165209,84.8300649 L125.165209,93.3788312 L123.837953,93.3788312 L123.837953,86.0706169 L122.547119,86.0706169 L122.547119,89.3672403 C122.547119,90.0562987 122.523043,90.6343182 122.473657,91.1025325 C122.424271,91.569513 122.334141,91.9637013 122.203884,92.2832468 C122.073011,92.6034091 121.896455,92.8637338 121.674217,93.0642208 C121.45383,93.2659416 121.16739,93.4436039 120.814278,93.5996753 L120.309921,92.6169805 C120.523516,92.4942208 120.696986,92.3591234 120.832798,92.2116883 C120.967993,92.0642532 121.07726,91.8847403 121.158747,91.6712987 C121.240852,91.4590909 121.295794,91.1981494 121.324809,90.8915584 C121.35444,90.5849675 121.368022,90.2018831 121.368022,89.7429221 L121.368022,84.8300649 L125.165209,84.8300649" id="Fill-36" fill="#797B79"></path>
                        <path d="M127.671563,92.1382792 L128.170982,92.1382792 C128.578419,92.1382792 128.856834,92.0062662 129.007462,91.7428571 C129.157473,91.4800649 129.233404,91.1426299 129.233404,90.7317857 C129.233404,90.2629545 129.153152,89.9193506 128.994498,89.7015909 C128.836462,89.4832143 128.554343,89.3746429 128.147523,89.3746429 L127.671563,89.3746429 L127.671563,92.1382792 L127.671563,92.1382792 Z M126.344307,93.3788312 L126.344307,84.8300649 L127.671563,84.8300649 L127.671563,88.1340909 L128.234567,88.1340909 C128.675957,88.1340909 129.040181,88.1933117 129.329708,88.3117532 C129.618617,88.4301948 129.851968,88.6004545 130.027289,88.8200649 C130.203845,89.0409091 130.327928,89.310487 130.400773,89.6287987 C130.474852,89.9477273 130.511274,90.3073701 130.511274,90.7077273 C130.511274,91.5978896 130.326693,92.2653571 129.957531,92.7107468 C129.588986,93.1555195 129.019809,93.3788312 128.249383,93.3788312 L126.344307,93.3788312 L126.344307,93.3788312 Z" id="Fill-37" fill="#797B79"></path>
                        <polyline id="Fill-38" fill="#797B79" points="134.174502 93.3788312 134.174502 89.6448377 132.6497 89.6448377 132.6497 93.3788312 131.322444 93.3788312 131.322444 84.8300649 132.6497 84.8300649 132.6497 88.4042857 134.174502 88.4042857 134.174502 84.8300649 135.501758 84.8300649 135.501758 93.3788312 134.174502 93.3788312"></polyline>
                        <path d="M141.486758,93.3788312 L142.814014,93.3788312 L142.814014,84.8300649 L141.486758,84.8300649 L141.486758,93.3788312 Z M137.984653,92.1382792 L138.484072,92.1382792 C138.891509,92.1382792 139.169924,92.0062662 139.319318,91.7428571 C139.470563,91.4800649 139.544643,91.1426299 139.544643,90.7317857 C139.544643,90.2629545 139.466242,89.9193506 139.307588,89.7015909 C139.1477,89.4832143 138.866199,89.3746429 138.460614,89.3746429 L137.984653,89.3746429 L137.984653,92.1382792 L137.984653,92.1382792 Z M136.657397,93.3788312 L136.657397,84.8300649 L137.984653,84.8300649 L137.984653,88.1340909 L138.546422,88.1340909 C138.987195,88.1340909 139.353271,88.1933117 139.642798,88.3117532 C139.931708,88.4308117 140.165058,88.6004545 140.340379,88.8200649 C140.515083,89.0409091 140.639783,89.310487 140.712628,89.6294156 C140.78609,89.9477273 140.82313,90.3073701 140.82313,90.7077273 C140.82313,91.5978896 140.639783,92.2653571 140.270621,92.7107468 C139.900841,93.1555195 139.331664,93.3788312 138.562473,93.3788312 L136.657397,93.3788312 L136.657397,93.3788312 Z" id="Fill-39" fill="#797B79"></path>
                        <path d="M146.908137,93.3788312 L145.936462,90.4430844 L145.912386,90.4430844 L144.940711,93.3788312 L143.465296,93.3788312 L145.199372,88.9082792 C144.928365,88.228474 144.660444,87.5511364 144.394375,86.8750325 C144.12769,86.1995455 143.859152,85.5178896 143.589379,84.8300649 L145.076523,84.8300649 C145.214805,85.2643506 145.354939,85.6924675 145.494455,86.1131818 C145.632736,86.5351299 145.77287,86.9632468 145.912386,87.3975325 L145.960538,87.3851948 L146.772942,84.8300649 L148.272433,84.8300649 L146.613054,88.9082792 C146.908137,89.6608766 147.204455,90.408539 147.503859,91.1494156 C147.802029,91.8902922 148.099581,92.6342532 148.395282,93.3788312 L146.908137,93.3788312" id="Fill-40" fill="#797B79"></path>
                        <path d="M151.442415,93.3788312 L151.442415,84.8300649 L152.769671,84.8300649 L152.769671,88.4412987 L153.039444,88.4412987 C153.334527,88.4412987 153.575903,88.3555519 153.765422,88.1834416 C153.953708,88.0113312 154.097545,87.7041234 154.196318,87.2624351 C154.211751,87.1884091 154.246939,87.0354221 154.298794,86.8010065 C154.352502,86.5678247 154.406827,86.3186039 154.460534,86.0521104 C154.51239,85.7862338 154.564245,85.537013 154.613014,85.3025974 C154.661783,85.0694156 154.694502,84.9164286 154.71117,84.8424026 L155.952617,84.8424026 C155.86187,85.2766883 155.77174,85.7048052 155.682845,86.1267532 C155.592715,86.5474675 155.501968,86.9718831 155.411838,87.3975325 C155.32109,87.8151623 155.184661,88.1532143 155.001314,88.4104545 C154.816116,88.6683117 154.605606,88.8465909 154.3667,88.9446753 L154.3667,88.9693506 C154.679069,89.0840909 154.921061,89.268539 155.092679,89.5220779 C155.264913,89.7762338 155.39517,90.1118182 155.4853,90.5294481 C155.592715,91.0124675 155.692722,91.4893182 155.787791,91.96 C155.881007,92.4306818 155.981014,92.9044481 156.08843,93.3788312 L154.761173,93.3788312 L154.515477,92.1259416 C154.433372,91.7083117 154.347563,91.2906818 154.256816,90.8730519 C154.166686,90.4147078 154.029022,90.0951623 153.84444,89.9150325 C153.660477,89.7355195 153.420336,89.6448377 153.12587,89.6448377 L152.769671,89.6448377 L152.769671,93.3788312 L151.442415,93.3788312" id="Fill-41" fill="#797B79"></path>
                        <path d="M158.657134,86.8077922 C158.575646,87.3969156 158.48922,87.9848052 158.39909,88.5702273 C158.308343,89.1556494 158.210805,89.7509416 158.10339,90.3573377 L159.271375,90.3573377 L158.719484,86.8077922 L158.657134,86.8077922 L158.657134,86.8077922 Z M159.812773,93.3788312 L159.48065,91.5978896 L157.907079,91.5978896 C157.850903,91.8927597 157.794726,92.1888636 157.741635,92.4880519 C157.688545,92.7872403 157.637924,93.083961 157.587921,93.3788312 L156.234736,93.3788312 C156.523646,91.9451948 156.810087,90.5214286 157.097144,89.1044481 C157.382968,87.6880844 157.670025,86.2630844 157.956466,84.8300649 L159.430646,84.8300649 L161.165339,93.3788312 L159.812773,93.3788312 L159.812773,93.3788312 Z" id="Fill-42" fill="#797B79"></path>
                        <path d="M163.156224,86.0706169 L163.156224,88.8342532 L163.623542,88.8342532 C164.033448,88.8342532 164.316801,88.7170455 164.477924,88.4832468 C164.637812,88.2488312 164.716213,87.8965909 164.716213,87.4283766 C164.716213,87.0082792 164.642134,86.6776299 164.489653,86.4345779 C164.338408,86.1921429 164.056906,86.0706169 163.647617,86.0706169 L163.156224,86.0706169 L163.156224,86.0706169 Z M163.721079,84.8300649 C164.507556,84.8300649 165.083523,85.0342532 165.448365,85.4444805 C165.812588,85.8540909 165.9947,86.5129221 165.9947,87.4215909 C165.9947,87.8231818 165.957661,88.1877597 165.884199,88.5147078 C165.811354,88.8428896 165.683567,89.1229545 165.503307,89.3567532 C165.323664,89.5899351 165.087845,89.7719156 164.7977,89.9033117 C164.506321,90.033474 164.139011,90.0994805 163.697004,90.0994805 L163.156224,90.0994805 L163.156224,93.3788312 L161.828968,93.3788312 L161.828968,84.8300649 L163.721079,84.8300649 L163.721079,84.8300649 Z" id="Fill-43" fill="#797B79"></path>
                        <polyline id="Fill-44" fill="#797B79" points="168.89491 86.0706169 168.89491 93.3788312 167.567653 93.3788312 167.567653 86.0706169 166.191011 86.0706169 166.191011 84.8300649 170.271552 84.8300649 170.271552 86.0706169 168.89491 86.0706169"></polyline>
                        <path d="M53.8829025,28.2446104 C51.2351805,28.2446104 49.0887292,26.0997078 49.0887292,23.4538961 C49.0887292,16.1105195 43.1111372,10.1366234 35.7636931,10.1366234 C28.4150144,10.1366234 22.4374224,16.1105195 22.4374224,23.4538961 C22.4374224,26.0997078 20.2909711,28.2446104 17.6432491,28.2446104 C14.9955271,28.2446104 12.8490758,26.0997078 12.8490758,23.4538961 C12.8490758,10.8275325 23.128213,0.555194805 35.7636931,0.555194805 C48.3979386,0.555194805 58.6770758,10.8275325 58.6770758,23.4538961 C58.6770758,26.0997078 56.5306245,28.2446104 53.8829025,28.2446104" id="Fill-45" fill="#2493C5"></path>
                    </g>
                </g>
            </g>
        </g>
    </g>
</svg>